<svg xmlns="http://www.w3.org/2000/svg" xmlns:xlink="http://www.w3.org/1999/xlink" width="201px" height="116px" viewBox="0 0 201 116" version="1.1">
  <g stroke="none" stroke-width="1" fill="none" fill-rule="evenodd">
    <g transform="translate(-740.000000, -362.000000)">
      <g transform="translate(740.000000, 362.000000)">
        <g transform="translate(25.000000, 33.000000)">
          <path d="M146.148182,11.2696575 L145.892727,11.2696575 L145.892727,4.27564641 C145.892727,1.94889503 144.022727,0.0623646409 141.715455,0.0623646409 L111.925455,0.0623646409 C109.619091,0.0623646409 107.749091,1.94889503 107.749091,4.27564641 L107.749091,11.2696575 L107.448182,11.2696575 C105.358182,11.2925856 103.667273,13.0149503 103.667273,15.1307624 L103.667273,15.589326 C102.784545,15.3692155 101.860909,15.2518232 100.910909,15.2518232 C99.9609091,15.2518232 99.0372727,15.3692155 98.1545455,15.589326 L98.1545455,15.1298453 C98.1545455,12.9975249 96.4409091,11.2687403 94.3272727,11.2687403 L94.0718182,11.2687403 L94.0718182,4.27472928 C94.0718182,1.9479779 92.2018182,0.0614475138 89.8945455,0.0614475138 L60.1045455,0.0614475138 C57.7981818,0.0614475138 55.9281818,1.9479779 55.9281818,4.27472928 L55.9281818,11.2687403 L55.6272727,11.2687403 C53.5372727,11.2916685 51.8463636,13.0140331 51.8463636,15.1298453 L51.8463636,15.5884088 C50.9636364,15.3682983 50.04,15.2509061 49.09,15.2509061 C48.14,15.2509061 47.2163636,15.3682983 46.3336364,15.5884088 L46.3336364,15.1289282 C46.3336364,12.9966077 44.62,11.2678232 42.5063636,11.2678232 L42.2509091,11.2678232 L42.2509091,4.27381215 C42.2509091,1.94706077 40.3809091,0.0605303867 38.0745455,0.0605303867 L8.28363636,0.0605303867 C5.97727273,0.0605303867 4.10636364,1.94706077 4.10636364,4.27381215 L4.10636364,11.2678232 L3.80545455,11.2678232 C1.71545455,11.2907514 0.0245454545,13.013116 0.0245454545,15.1289282 L0.0245454545,38.5532707 C0.0245454545,39.5666961 0.839090909,40.3875249 1.84272727,40.3875249 L6.91090909,40.3875249 L6.91090909,40.388442 L39.4454545,40.388442 L39.4454545,40.3875249 L44.5136364,40.3875249 C45.5181818,40.3875249 46.3318182,39.5666961 46.3318182,38.5532707 L46.3318182,38.0607735 C47.2145455,38.280884 48.1381818,38.3982762 49.0881818,38.3982762 C50.0381818,38.3982762 50.9618182,38.280884 51.8445455,38.0607735 L51.8445455,38.555105 C51.8445455,39.5685304 52.6581818,40.3893591 53.6627273,40.3893591 L58.7309091,40.3893591 L58.7309091,40.3902762 L91.2654545,40.3902762 L91.2654545,40.3893591 L96.3336364,40.3893591 C97.3381818,40.3893591 98.1518182,39.5685304 98.1518182,38.555105 L98.1518182,38.0607735 C99.0345455,38.280884 99.9581818,38.3982762 100.908182,38.3982762 C101.858182,38.3982762 102.781818,38.280884 103.664545,38.0607735 L103.664545,38.555105 C103.664545,39.5685304 104.478182,40.3893591 105.482727,40.3893591 L110.550909,40.3893591 L110.550909,40.3902762 L143.085455,40.3902762 L143.085455,40.3893591 L148.153636,40.3893591 C149.157273,40.3893591 149.971818,39.5685304 149.971818,38.555105 L149.971818,15.1307624 C149.975455,12.998442 148.261818,11.2696575 146.148182,11.2696575 Z" fill="#257648"/>
          <path d="M68.4163636,53.5776464 L68.1609091,53.5776464 L68.1609091,46.5836354 C68.1609091,44.2559669 66.2909091,42.3703536 63.9845455,42.3703536 L34.1945455,42.3703536 C31.8881818,42.3703536 30.0172727,44.256884 30.0172727,46.5836354 L30.0172727,53.5776464 L29.7163636,53.5776464 C27.6263636,53.6005746 25.9354545,55.3229392 25.9354545,57.4387514 L25.9354545,80.8630939 C25.9354545,81.8765193 26.7490909,82.6973481 27.7536364,82.6973481 L32.8218182,82.6973481 L32.8218182,82.6982652 L65.3563636,82.6982652 L65.3563636,82.6973481 L70.4245455,82.6973481 C71.4290909,82.6973481 72.2427273,81.8765193 72.2427273,80.8630939 L72.2427273,57.4387514 C72.2436364,55.3064309 70.53,53.5776464 68.4163636,53.5776464 Z" fill="#1B9E53"/>
          <path d="M120.237273,53.5776464 L119.981818,53.5776464 L119.981818,46.5836354 C119.981818,44.2559669 118.111818,42.3703536 115.805455,42.3703536 L86.0154545,42.3703536 C83.7081818,42.3703536 81.8381818,44.256884 81.8381818,46.5836354 L81.8381818,53.5776464 L81.5372727,53.5776464 C79.4472727,53.6005746 77.7563636,55.3229392 77.7563636,57.4387514 L77.7563636,80.8630939 C77.7563636,81.8765193 78.57,82.6973481 79.5745455,82.6973481 L84.6427273,82.6973481 L84.6427273,82.6982652 L117.177273,82.6982652 L117.177273,82.6973481 L122.245455,82.6973481 C123.25,82.6973481 124.063636,81.8765193 124.063636,80.8630939 L124.063636,57.4387514 C124.064545,55.3064309 122.350909,53.5776464 120.237273,53.5776464 Z" fill="#1B9E53"/>
        </g>
        <circle fill="#FFFFFF" cx="48.5" cy="11.5" r="11.5"/>
        <path d="M48.5009114,19.93861 C42.6697971,19.93861 37.8521557,15.6101245 37.1020764,10 C37.0346331,10.500839 37,11.0116767 37,11.530695 C37,17.8652636 42.1484784,23 48.5,23 C54.8515216,23 60,17.8643546 60,11.530695 C60,11.0116767 59.9653669,10.500839 59.8979236,10 C59.1487557,15.6101245 54.3320257,19.93861 48.5009114,19.93861 Z" fill="#E8E8E8"/>
        <path d="M62.7298724,67 L32.2710567,67 C29.9129129,67 28,65.1287667 28,62.8208819 L28,31.1791181 C28,28.8712333 29.9119834,27 32.2710567,27 L62.7298724,27 C65.0880163,27 66.9999997,28.8712333 66.9999997,31.1791181 L66.9999997,62.8208819 C67.0009292,65.1287667 65.0889458,67 62.7298724,67 Z" fill="#E8E8E8"/>
        <path d="M62,63.8497419 L62,27.0327489 C62,27.0245616 62,27.0163744 62,27.0081872 C61.8856719,27.0027291 61.7713439,27 61.6551866,27 L33.3438988,27 C33.2277415,27 33.1134134,27.0027291 33,27.0081872 L33,27.0327489 L33,63.8497419 C33,65.5899798 35.0332103,67 37.5420254,67 L57.4588892,67 C59.9667897,67 62,65.5899798 62,63.8497419 Z" fill="#FFFFFF"/>
        <path d="M72,41.8452332 L72,65.1732859 C72,66.1825454 71.1742084,67 70.1546556,67 L26.8453444,67 C25.8257916,67 25,66.1825454 25,65.1732859 L25,41.8452332 C25,39.7381185 26.717093,38.0228339 28.8373937,38 L68.11555,38 C70.2616855,38 72,39.7216781 72,41.8452332 Z" fill="#1B9E53"/>
        <path d="M64.9990779,67 L32,67 L32,41.2231356 C32,39.4430587 33.4568722,38 35.2539887,38 L61.7460113,38 C63.5431278,38 65,39.4430587 65,41.2231356 L65,67 L64.9990779,67 Z" fill="#2BCE72"/>
        <circle fill="#FFFFFF" cx="100.5" cy="11.5" r="11.5"/>
        <path d="M100.500911,19.93861 C94.6697971,19.93861 89.8521557,15.6101245 89.1020764,10 C89.0346331,10.500839 89,11.0116767 89,11.530695 C89,17.8652636 94.1484784,23 100.5,23 C106.851522,23 112,17.8643546 112,11.530695 C112,11.0116767 111.965367,10.500839 111.897924,10 C111.149667,15.6101245 106.332026,19.93861 100.500911,19.93861 Z" fill="#E8E8E8"/>
        <path d="M115.728943,67 L85.2701273,67 C82.9119834,67 81,65.1287667 81,62.8208819 L81,31.1791181 C81,28.8712333 82.9119834,27 85.2701273,27 L115.728943,27 C118.088017,27 120,28.8712333 120,31.1791181 L120,62.8208819 C120,65.1287667 118.088017,67 115.728943,67 Z" fill="#E8E8E8"/>
        <path d="M115,63.8497419 L115,27.0327489 C115,27.0245616 115,27.0163744 114.999085,27.0081872 C114.885676,27.0027291 114.770436,27 114.655197,27 L86.3448026,27 C86.2286489,27 86.1143245,27.0027291 86,27.0081872 L86,27.0327489 L86,63.8497419 C86,65.5899798 88.0331462,67 90.5418822,67 L110.458118,67 C112.966854,67 115,65.5899798 115,63.8497419 Z" fill="#FFFFFF"/>
        <path d="M124,41.8452332 L124,65.1732859 C124,66.1825454 123.174208,67 122.154656,67 L78.8453444,67 C77.8257916,67 77,66.1825454 77,65.1732859 L77,41.8452332 C77,39.7381185 78.717093,38.0228339 80.8373937,38 L120.11555,38 C122.261686,38 124,39.7216781 124,41.8452332 Z" fill="#1B9E53"/>
        <path d="M116.999078,67 L84,67 L84,41.2231356 C84,39.4430587 85.4568722,38 87.2539887,38 L113.746011,38 C115.543128,38 117,39.4430587 117,41.2231356 L117,67 L116.999078,67 Z" fill="#2BCE72"/>
        <circle fill="#FFFFFF" cx="151.5" cy="11.5" r="11.5"/>
        <path d="M151.500911,19.93861 C145.669797,19.93861 140.852156,15.6101245 140.102076,10 C140.034633,10.500839 140,11.0116767 140,11.530695 C140,17.8652636 145.148478,23 151.5,23 C157.851522,23 163,17.8643546 163,11.530695 C163,11.0116767 162.965367,10.500839 162.897924,10 C162.149667,15.6101245 157.332026,19.93861 151.500911,19.93861 Z" fill="#E8E8E8"/>
        <path d="M167.728943,67 L137.270127,67 C134.911983,67 133,65.1287667 133,62.8208819 L133,31.1791181 C133,28.8712333 134.911983,27 137.270127,27 L167.728943,27 C170.087087,27 172,28.8712333 172,31.1791181 L172,62.8208819 C171.99907,65.1287667 170.087087,67 167.728943,67 Z" fill="#E8E8E8"/>
        <path d="M167,63.8497419 L167,27.0327489 C167,27.0245616 167,27.0163744 166.999085,27.0081872 C166.885676,27.0027291 166.770436,27 166.655197,27 L138.344803,27 C138.228649,27 138.114324,27.0027291 138.000915,27.0081872 C138.000915,27.0163744 138,27.0245616 138,27.0327489 L138,63.8497419 C138,65.5899798 140.033146,67 142.541882,67 L162.458118,67 C164.966854,67 167,65.5899798 167,63.8497419 Z" fill="#FFFFFF"/>
        <path d="M175,41.8452332 L175,65.1732859 C175,66.1825454 174.174208,67 173.154656,67 L129.845344,67 C128.825792,67 128,66.1825454 128,65.1732859 L128,41.8452332 C128,39.7381185 129.717093,38.0228339 131.837394,38 L171.11555,38 C173.260763,38 175,39.7216781 175,41.8452332 Z" fill="#1B9E53"/>
        <path d="M167.999078,67 L135,67 L135,41.2231356 C135,39.4430587 136.456872,38 138.253989,38 L164.746011,38 C166.543128,38 168,39.4430587 168,41.2231356 L168,67 L167.999078,67 Z" fill="#2BCE72"/>
        <ellipse fill="#FFFFFF" transform="translate(74.163338, 53.657318) rotate(-24.823140) translate(-74.163338, -53.657318) " cx="74.1633382" cy="53.657318" rx="11.485438" ry="11.5205435"/>
        <path d="M74.5009114,62.9395189 C68.6697971,62.9395189 63.8521557,58.6110334 63.1020764,53 C63.0346331,53.500839 63,54.0116767 63,54.530695 C63,60.8652636 68.1484784,66 74.5,66 C80.8515216,66 86,60.8643546 86,54.530695 C86,54.0116767 85.9653669,53.500839 85.8979236,53 C85.1487557,58.6110334 80.3311143,62.9395189 74.5009114,62.9395189 Z" fill="#E8E8E8"/>
        <path d="M88.7298724,109 L58.2710567,109 C55.9129129,109 54,107.128767 54,104.820882 L54,73.1791181 C54,70.8703236 55.9119834,69 58.2710567,69 L88.7298724,69 C91.0880163,69 92.9999997,70.8712333 92.9999997,73.1791181 L92.9999997,104.820882 C93.0009292,107.128767 91.0889458,109 88.7298724,109 Z" fill="#E8E8E8"/>
        <path d="M88,105.849742 L88,69.0327489 C88,69.0245616 88,69.0163744 87.9990854,69.0081872 C87.8856755,69.0027291 87.7704365,69 87.6551974,69 L59.3448026,69 C59.2286489,69 59.1143245,69.0027291 59.0009146,69.0081872 C59.0009146,69.0163744 59,69.0245616 59,69.0327489 L59,105.849742 C59,107.58998 61.0331462,109 63.5418822,109 L83.4581178,109 C85.9659392,109 88,107.58998 88,105.849742 Z" fill="#FFFFFF"/>
        <path d="M98,83.8452332 L98,107.173286 C98,108.181632 97.1742084,109 96.1546556,109 L52.8453444,109 C51.8257916,109 51,108.181632 51,107.173286 L51,83.8452332 C51,81.7381185 52.717093,80.0228339 54.8373937,80 L94.11555,80 C96.2607629,80 98,81.7216781 98,83.8452332 Z" fill="#2BCE72"/>
        <path d="M91,109 L58,109 L58,83.2231356 C58,81.4430587 59.4568722,80 61.2539887,80 L87.7460113,80 C89.5431278,80 91,81.4430587 91,83.2231356 L91,109 Z" fill="#95E7B9"/>
        <ellipse fill="#FFFFFF" transform="translate(125.927245, 53.615351) rotate(-22.333388) translate(-125.927245, -53.615351) " cx="125.927245" cy="53.6153507" rx="11.478894" ry="11.5174371"/>
        <path d="M125.500911,62.9395189 C119.669797,62.9395189 114.852156,58.6110334 114.102076,53 C114.034633,53.500839 114,54.0116767 114,54.530695 C114,60.8652636 119.148478,66 125.5,66 C131.851522,66 137,60.8643546 137,54.530695 C137,54.0116767 136.965367,53.500839 136.897924,53 C136.148756,58.6110334 131.332026,62.9395189 125.500911,62.9395189 Z" fill="#E8E8E8"/>
        <path d="M141.729771,109 L111.270229,109 C108.911099,109 107,107.128767 107,104.820882 L107,73.1791181 C107,70.8703236 108.912029,69 111.270229,69 L141.729771,69 C144.087971,69 146,70.8712333 146,73.1791181 L146,104.820882 C146.000929,107.128767 144.0889,109 141.729771,109 Z" fill="#E8E8E8"/>
        <path d="M141,105.849742 L141,69.0327489 C141,69.0245616 141,69.0163744 140.999085,69.0081872 C140.885676,69.0027291 140.770436,69 140.655197,69 L112.344803,69 C112.228649,69 112.114324,69.0027291 112,69.0081872 L112,69.0327489 L112,105.849742 C112,107.58998 114.033146,109 116.541882,109 L136.458118,109 C138.965939,109 141,107.58998 141,105.849742 Z" fill="#FFFFFF"/>
        <path d="M149,83.8452332 L149,107.173286 C149,108.181632 148.174208,109 147.154656,109 L103.845344,109 C102.825792,109 102,108.181632 102,107.173286 L102,83.8452332 C102,81.7381185 103.717093,80.0228339 105.837394,80 L145.11555,80 C147.260763,80 149,81.7216781 149,83.8452332 Z" fill="#2BCE72"/>
        <path d="M141.999078,109 L109,109 L109,83.2231356 C109,81.4430587 110.456872,80 112.253989,80 L138.746011,80 C140.543128,80 142,81.4430587 142,83.2231356 L142,109 L141.999078,109 Z" fill="#95E7B9"/>
        <path d="M196.237273,86.5776464 L195.981818,86.5776464 L195.981818,79.5836354 C195.981818,77.2559669 194.111818,75.3703536 191.805455,75.3703536 L162.015455,75.3703536 C159.708182,75.3703536 157.838182,77.256884 157.838182,79.5836354 L157.838182,86.5776464 L157.537273,86.5776464 C155.447273,86.6005746 153.756364,88.3229392 153.756364,90.4387514 L153.756364,113.863094 C153.756364,114.876519 154.57,115.697348 155.574545,115.697348 L160.642727,115.697348 L160.642727,115.698265 L193.177273,115.698265 L193.177273,115.697348 L198.245455,115.697348 C199.25,115.697348 200.063636,114.876519 200.063636,113.863094 L200.063636,90.4387514 C200.064545,88.3064309 198.350909,86.5776464 196.237273,86.5776464 Z" fill="#1B9E53"/>
        <ellipse fill="#FFFFFF" transform="translate(176.927245, 53.615351) rotate(-22.333388) translate(-176.927245, -53.615351) " cx="176.927245" cy="53.6153507" rx="11.478894" ry="11.5174371"/>
        <path d="M176.500911,62.9395189 C170.669797,62.9395189 165.852156,58.6110334 165.102076,53 C165.034633,53.500839 165,54.0116767 165,54.530695 C165,60.8652636 170.148478,66 176.5,66 C182.851522,66 188,60.8643546 188,54.530695 C188,54.0116767 187.965367,53.500839 187.897924,53 C187.148756,58.6110334 182.332026,62.9395189 176.500911,62.9395189 Z" fill="#E8E8E8"/>
        <path d="M192.729771,109 L162.270229,109 C159.911099,109 158,107.128767 158,104.820882 L158,73.1791181 C158,70.8703236 159.912029,69 162.270229,69 L192.729771,69 C195.087971,69 197,70.8712333 197,73.1791181 L197,104.820882 C197.000929,107.128767 195.0889,109 192.729771,109 Z" fill="#E8E8E8"/>
        <path d="M192,105.849742 L192,69.0327489 C192,69.0245616 192,69.0163744 191.999085,69.0081872 C191.885676,69.0027291 191.770436,69 191.655197,69 L163.344803,69 C163.228649,69 163.114324,69.0027291 163,69.0081872 L163,69.0327489 L163,105.849742 C163,107.58998 165.033146,109 167.541882,109 L187.458118,109 C189.965939,109 192,107.58998 192,105.849742 Z" fill="#FFFFFF"/>
        <path d="M200,83.8452332 L200,107.173286 C200,108.181632 199.174208,109 198.154656,109 L154.845344,109 C153.825792,109 153,108.181632 153,107.173286 L153,83.8452332 C153,81.7381185 154.717093,80.0228339 156.837394,80 L196.11555,80 C198.260763,80 200,81.7216781 200,83.8452332 Z" fill="#2BCE72"/>
        <path d="M192.999078,109 L160,109 L160,83.2231356 C160,81.4430587 161.456872,80 163.253989,80 L189.746011,80 C191.543128,80 193,81.4430587 193,83.2231356 L193,109 L192.999078,109 Z" fill="#95E7B9"/>
        <path d="M43.2372727,86.5776464 L42.9818182,86.5776464 L42.9818182,79.5836354 C42.9818182,77.2559669 41.1118182,75.3703536 38.8054545,75.3703536 L9.01545455,75.3703536 C6.70818182,75.3703536 4.83818182,77.256884 4.83818182,79.5836354 L4.83818182,86.5776464 L4.53727273,86.5776464 C2.44727273,86.6005746 0.756363636,88.3229392 0.756363636,90.4387514 L0.756363636,113.863094 C0.756363636,114.876519 1.57,115.697348 2.57454545,115.697348 L7.64272727,115.697348 L7.64272727,115.698265 L40.1772727,115.698265 L40.1772727,115.697348 L45.2454545,115.697348 C46.25,115.697348 47.0636364,114.876519 47.0636364,113.863094 L47.0636364,90.4387514 C47.0645455,88.3064309 45.3509091,86.5776464 43.2372727,86.5776464 Z" fill="#1B9E53"/>
        <ellipse fill="#FFFFFF" transform="translate(23.927245, 53.615351) rotate(-22.333388) translate(-23.927245, -53.615351) " cx="23.9272455" cy="53.6153507" rx="11.478894" ry="11.5174371"/>
        <path d="M23.5009114,62.9395189 C17.6697971,62.9395189 12.8521557,58.6110334 12.1020764,53 C12.0346331,53.500839 12,54.0116767 12,54.530695 C12,60.8652636 17.1484784,66 23.5,66 C29.8515216,66 35,60.8643546 35,54.530695 C35,54.0116767 34.9653669,53.500839 34.8979236,53 C34.1487557,58.6110334 29.3320257,62.9395189 23.5009114,62.9395189 Z" fill="#E8E8E8"/>
        <path d="M39.7297707,109 L9.27022901,109 C6.91109944,109 5,107.128767 5,104.820882 L5,73.1791181 C5,70.8703236 6.91202897,69 9.27022901,69 L39.7297707,69 C42.0879707,69 43.9999997,70.8712333 43.9999997,73.1791181 L43.9999997,104.820882 C44.0009292,107.128767 42.0889002,109 39.7297707,109 Z" fill="#E8E8E8"/>
        <path d="M39,105.849742 L39,69.0327489 C39,69.0245616 39,69.0163744 38.9990854,69.0081872 C38.8856755,69.0027291 38.7704365,69 38.6551974,69 L10.3448026,69 C10.2286489,69 10.1143245,69.0027291 10,69.0081872 L10,69.0327489 L10,105.849742 C10,107.58998 12.0331462,109 14.5418822,109 L34.4581178,109 C36.9659392,109 39,107.58998 39,105.849742 Z" fill="#FFFFFF"/>
        <path d="M47,83.8452332 L47,107.173286 C47,108.181632 46.1742084,109 45.1546556,109 L1.84534443,109 C0.825791633,109 0,108.181632 0,107.173286 L0,83.8452332 C0,81.7381185 1.71709299,80.0228339 3.83739375,80 L43.11555,80 C45.2607629,80 47,81.7216781 47,83.8452332 Z" fill="#2BCE72"/>
        <path d="M39.9990779,109 L7,109 L7,83.2231356 C7,81.4430587 8.45687222,80 10.2539887,80 L36.7460113,80 C38.5431278,80 40,81.4430587 40,83.2231356 L40,109 L39.9990779,109 Z" fill="#95E7B9"/>
      </g>
    </g>
  </g>
</svg>